<svg version="1.2" xmlns="http://www.w3.org/2000/svg" viewBox="0 0 1464 313" width="1464" height="313">
	<title>banner</title>
	<style>
		.s0 { fill: #3a3e6c } 
		.s1 { fill: #000000 } 
	</style>
	<path id="Background" class="s0" d="m30 0h1404c16.6 0 30 13.4 30 30v253c0 16.6-13.4 30-30 30h-1404c-16.6 0-30-13.4-30-30v-253c0-16.6 13.4-30 30-30z"/>
	<path id="Product Management App in Django" class="s1" aria-label="Product Management App in Django
"  d="m158.7 45.8h-14v30.9h14q7.7 0 12-4 4.2-4 4.2-11.5 0-7.4-4.2-11.4-4.3-4-12-4zm-25.2 73.2v-82.4h25.2q13.8 0 20.9 6.3 7.1 6.2 7.1 18.3 0 12.2-7.1 18.5-7.1 6.2-20.9 6.2h-14v33.1zm101.4-62.7l0.1 10.4q-1.7-1-3.8-1.4-2-0.5-4.4-0.5-8.6 0-13.2 5.6-4.6 5.6-4.6 16v32.6h-10.2v-61.8h10.2v9.6q3.2-5.6 8.3-8.3 5.2-2.8 12.5-2.8 1 0 2.3 0.2 1.3 0.1 2.8 0.4zm32.2 8q-8.2 0-12.9 6.4-4.8 6.4-4.8 17.5 0 11 4.7 17.4 4.8 6.4 13 6.4 8.1 0 12.8-6.4 4.8-6.4 4.8-17.4 0-11-4.8-17.4-4.7-6.5-12.8-6.5zm0-8.6q13.2 0 20.8 8.6 7.5 8.6 7.5 23.9 0 15.1-7.5 23.8-7.6 8.6-20.8 8.6-13.3 0-20.9-8.6-7.5-8.7-7.5-23.8 0-15.3 7.5-23.9 7.6-8.6 20.9-8.6zm85.8 10.9v-33.5h10.2v85.9h-10.2v-9.3q-3.2 5.5-8.1 8.3-4.8 2.6-11.7 2.6-11.2 0-18.2-8.9-7-9-7-23.5 0-14.6 7-23.5 7-9 18.2-9 6.9 0 11.7 2.7 4.9 2.7 8.1 8.2zm-34.6 21.6q0 11.2 4.6 17.6 4.7 6.3 12.7 6.3 8.1 0 12.7-6.3 4.6-6.4 4.6-17.6 0-11.2-4.6-17.6-4.6-6.4-12.7-6.4-8 0-12.7 6.4-4.6 6.4-4.6 17.6zm64.7 6.4v-37.4h10.1v37q0 8.8 3.4 13.2 3.5 4.4 10.3 4.4 8.2 0 13-5.3 4.8-5.2 4.8-14.3v-35h10.1v61.8h-10.1v-9.5q-3.7 5.6-8.6 8.4-4.9 2.7-11.4 2.7-10.6 0-16.1-6.6-5.5-6.6-5.5-19.4zm25.5-38.9zm91.6 3.9v9.5q-4.3-2.4-8.7-3.6-4.3-1.2-8.7-1.2-9.9 0-15.3 6.3-5.5 6.2-5.5 17.6 0 11.3 5.5 17.6 5.4 6.2 15.3 6.2 4.4 0 8.7-1.2 4.4-1.2 8.7-3.6v9.4q-4.3 2-8.8 3-4.6 1-9.7 1-13.9 0-22.2-8.8-8.2-8.7-8.2-23.6 0-15.2 8.3-23.8 8.3-8.7 22.8-8.7 4.7 0 9.1 1 4.5 0.9 8.7 2.9zm17.5-19.9h10.2v17.5h20.9v7.9h-20.9v33.5q0 7.6 2 9.8 2.1 2.1 8.5 2.1h10.4v8.5h-10.4q-11.8 0-16.2-4.4-4.5-4.4-4.5-16v-33.5h-7.5v-7.9h7.5zm80.8 79.3v-82.3h16.6l21 56 21.2-56h16.6v82.3h-10.9v-72.3l-21.2 56.5h-11.2l-21.3-56.5v72.3zm135.3-31h-10.1q-12.3 0-17.1 2.8-4.7 2.8-4.7 9.6 0 5.4 3.5 8.6 3.6 3.1 9.7 3.1 8.5 0 13.5-5.9 5.2-6 5.2-16zm10.1-4.1v35.2h-10.1v-9.4q-3.5 5.7-8.7 8.4-5.2 2.6-12.7 2.6-9.5 0-15.1-5.3-5.6-5.3-5.6-14.3 0-10.4 7-15.7 7-5.3 20.8-5.3h14.3v-1q0-7-4.7-10.8-4.5-3.9-12.9-3.9-5.3 0-10.3 1.3-5 1.3-9.7 3.8v-9.4q5.6-2.1 10.9-3.2 5.2-1.1 10.2-1.1 13.4 0 20 7 6.6 6.9 6.6 21.1zm72.3-2.1v37.3h-10.2v-37q0-8.7-3.4-13.1-3.4-4.4-10.2-4.4-8.3 0-13 5.3-4.7 5.2-4.7 14.3v34.9h-10.3v-61.8h10.3v9.6q3.6-5.6 8.5-8.3 5-2.8 11.4-2.8 10.7 0 16.1 6.6 5.5 6.6 5.5 19.4zm58.4 6.2h-10.1q-12.3 0-17 2.9-4.8 2.8-4.8 9.6 0 5.4 3.6 8.6 3.6 3.1 9.7 3.1 8.4 0 13.5-5.9 5.1-6.1 5.1-16zm10.2-4.2v35.3h-10.2v-9.4q-3.4 5.6-8.6 8.3-5.2 2.7-12.7 2.7-9.5 0-15.1-5.3-5.6-5.4-5.6-14.3 0-10.4 6.9-15.7 7-5.3 20.9-5.3h14.2v-1q0-7-4.6-10.8-4.6-3.9-12.9-3.9-5.3 0-10.3 1.3-5.1 1.2-9.7 3.8v-9.4q5.6-2.2 10.8-3.2 5.3-1.1 10.2-1.1 13.4 0 20.1 6.9 6.6 7 6.6 21.1zm61.6 3.7q0-11.1-4.6-17.1-4.5-6.1-12.8-6.1-8.1 0-12.7 6.1-4.5 6-4.5 17.1 0 10.9 4.5 17 4.6 6.1 12.7 6.1 8.3 0 12.8-6.1 4.6-6.1 4.6-17zm10.1-30.2v54.1q0 15.8-7 23.5-7 7.7-21.5 7.7-5.3 0-10.1-0.8-4.7-0.8-9.2-2.5v-9.9q4.5 2.5 8.9 3.6 4.3 1.2 8.8 1.2 10 0 15-5.2 5-5.2 5-15.8v-5q-3.2 5.5-8.1 8.2-4.9 2.7-11.7 2.7-11.4 0-18.4-8.7-6.9-8.7-6.9-22.9 0-14.4 6.9-23.1 7-8.6 18.4-8.6 6.8 0 11.7 2.7 4.9 2.7 8.1 8.2v-9.4zm73.7 28.3v5h-46.6q0.6 10.5 6.2 16 5.7 5.5 15.8 5.5 5.9 0 11.3-1.5 5.6-1.4 11-4.3v9.6q-5.5 2.3-11.2 3.6-5.8 1.2-11.7 1.2-14.8 0-23.4-8.6-8.6-8.6-8.6-23.3 0-15.2 8.1-24.1 8.2-8.9 22.2-8.9 12.4 0 19.6 8 7.3 8 7.3 21.8zm-46.3-2.9h36.2q-0.1-8.4-4.7-13.3-4.5-5-12-5-8.5 0-13.7 4.8-5 4.8-5.8 13.5zm111.1-13.6q3.8-6.8 9.1-10.1 5.3-3.2 12.5-3.2 9.6 0 14.9 6.8 5.2 6.7 5.2 19.2v37.3h-10.2v-37q0-8.9-3.1-13.2-3.2-4.3-9.6-4.3-7.9 0-12.5 5.3-4.6 5.2-4.6 14.2v35h-10.2v-37q0-8.9-3.1-13.2-3.2-4.3-9.7-4.3-7.8 0-12.4 5.3-4.6 5.3-4.6 14.2v35h-10.2v-61.8h10.2v9.6q3.5-5.7 8.3-8.4 4.9-2.7 11.6-2.7 6.7 0 11.4 3.4 4.7 3.4 7 9.9zm114.8 16.5v5h-46.7q0.7 10.5 6.3 16 5.7 5.5 15.8 5.5 5.9 0 11.3-1.5 5.5-1.4 11-4.3v9.6q-5.5 2.3-11.2 3.6-5.8 1.2-11.7 1.2-14.8 0-23.4-8.6-8.6-8.6-8.6-23.3 0-15.2 8.1-24.1 8.2-8.9 22.1-8.9 12.5 0 19.7 8 7.3 8 7.3 21.8zm-46.3-2.9h36.2q-0.1-8.4-4.7-13.3-4.5-5-12-5-8.5 0-13.7 4.8-5 4.8-5.8 13.5zm114.4-0.9v37.3h-10.2v-37q0-8.8-3.4-13.1-3.4-4.4-10.3-4.4-8.2 0-12.9 5.3-4.8 5.2-4.8 14.2v35h-10.2v-61.8h10.2v9.6q3.7-5.6 8.6-8.4 4.9-2.7 11.4-2.7 10.6 0 16.1 6.6 5.5 6.6 5.5 19.4zm20-42.1h10.3v17.6h20.9v7.9h-20.9v33.5q0 7.6 2 9.7 2.1 2.2 8.4 2.2h10.5v8.5h-10.5q-11.7 0-16.2-4.4-4.5-4.4-4.5-16v-33.5h-7.4v-7.9h7.4zm-915 183.9l-15.1-41-15.2 41zm-52.9 30.4l31.5-82.4h12.6l31.4 82.4h-11.6l-7.5-21.1h-37.1l-7.5 21.1zm96.9-9.3v32.8h-10.2v-85.3h10.2v9.4q3.2-5.5 8-8.2 4.9-2.7 11.7-2.7 11.3 0 18.3 9 7 8.9 7 23.5 0 14.5-7 23.5-7 8.9-18.3 8.9-6.8 0-11.7-2.6-4.8-2.7-8-8.3zm34.5-21.5q0-11.2-4.6-17.6-4.6-6.4-12.7-6.4-8 0-12.7 6.4-4.5 6.4-4.5 17.6 0 11.2 4.5 17.6 4.7 6.3 12.7 6.3 8.1 0 12.7-6.3 4.6-6.4 4.6-17.6zm37.2 21.5v32.8h-10.2v-85.3h10.2v9.4q3.2-5.5 8.1-8.2 4.9-2.7 11.6-2.7 11.3 0 18.3 9 7.1 8.9 7.1 23.5 0 14.5-7.1 23.5-7 8.9-18.3 8.9-6.7 0-11.6-2.6-4.9-2.7-8.1-8.3zm34.5-21.5q0-11.2-4.6-17.6-4.6-6.4-12.6-6.4-8.1 0-12.7 6.4-4.6 6.4-4.6 17.6 0 11.2 4.6 17.6 4.6 6.3 12.7 6.3 8 0 12.6-6.3 4.6-6.4 4.6-17.6zm63.3 30.8v-61.8h10.2v61.8zm0-73v-12.8h10.1v12.8zm82.8 35.7v37.3h-10.2v-37q0-8.7-3.4-13.1-3.4-4.3-10.2-4.3-8.3 0-13 5.2-4.8 5.2-4.8 14.3v34.9h-10.2v-61.8h10.2v9.6q3.7-5.6 8.6-8.3 5-2.8 11.4-2.8 10.7 0 16.1 6.7 5.5 6.5 5.5 19.3zm81.2-35.9h-13.5v64.1h13.5q17.1 0 24.9-7.8 8-7.7 8-24.4 0-16.5-8-24.2-7.8-7.7-24.9-7.7zm-24.6 73.2v-82.4h22.9q23.9 0 35.1 10 11.2 10 11.2 31.1 0 21.3-11.2 31.3-11.3 10-35.1 10zm86.6 1.1v-62.9h10.1v62.9q0 11.8-4.5 17.1-4.5 5.3-14.5 5.3h-3.8v-8.6h2.7q5.8 0 7.9-2.6 2.1-2.7 2.1-11.2zm0-74.1v-12.8h10.1v12.8zm69.6 42h-10.1q-12.3 0-17 2.8-4.8 2.8-4.8 9.6 0 5.4 3.5 8.6 3.6 3.1 9.7 3.1 8.5 0 13.6-5.9 5.1-6.1 5.1-16zm10.2-4.2v35.3h-10.2v-9.4q-3.5 5.6-8.7 8.3-5.2 2.7-12.7 2.7-9.4 0-15.1-5.3-5.5-5.4-5.5-14.3 0-10.4 6.9-15.7 7-5.3 20.9-5.3h14.2v-1q0-7-4.6-10.8-4.6-3.9-12.9-3.9-5.3 0-10.4 1.3-5 1.2-9.6 3.8v-9.4q5.6-2.2 10.8-3.2 5.2-1.1 10.2-1.1 13.4 0 20 6.9 6.7 7 6.7 21.1zm72.2-2v37.3h-10.1v-37q0-8.8-3.4-13.1-3.5-4.4-10.3-4.4-8.2 0-13 5.3-4.7 5.2-4.7 14.3v34.9h-10.2v-61.8h10.2v9.6q3.6-5.6 8.5-8.3 5-2.8 11.5-2.8 10.6 0 16.1 6.6 5.4 6.6 5.4 19.4zm60.9 5.7q0-11.1-4.5-17.1-4.6-6.1-12.8-6.1-8.1 0-12.7 6.1-4.5 6-4.5 17.1 0 10.9 4.5 17 4.6 6.1 12.7 6.1 8.2 0 12.8-6.1 4.5-6.1 4.5-17zm10.2-30.2v54.1q0 15.8-7 23.5-7 7.7-21.5 7.7-5.3 0-10.1-0.8-4.7-0.8-9.2-2.5v-9.8q4.5 2.4 8.8 3.5 4.4 1.2 8.9 1.2 10 0 15-5.2 4.9-5.2 4.9-15.8v-5q-3.1 5.5-8 8.2-4.9 2.7-11.8 2.7-11.3 0-18.3-8.7-6.9-8.6-6.9-22.9 0-14.4 6.9-23 7-8.7 18.3-8.7 6.9 0 11.8 2.7 4.9 2.7 8 8.2v-9.4zm44.9 7.1q-8.2 0-12.9 6.4-4.8 6.3-4.8 17.4 0 11.1 4.7 17.5 4.8 6.4 13 6.4 8.1 0 12.9-6.4 4.7-6.4 4.7-17.5 0-10.9-4.7-17.3-4.8-6.5-12.9-6.5zm0-8.6q13.2 0 20.8 8.6 7.6 8.6 7.6 23.8 0 15.2-7.6 23.9-7.6 8.6-20.8 8.6-13.3 0-20.9-8.6-7.5-8.7-7.5-23.9 0-15.2 7.5-23.8 7.6-8.6 20.9-8.6z"/>
</svg>