<svg version="1.2" xmlns="http://www.w3.org/2000/svg" viewBox="0 0 888 296" width="888" height="296">
	<title>untitled</title>
	<defs>
		<filter x="-50%" y="-50%" width="200%" height="200%" id="f1" ><feDropShadow dx="0" dy="0" stdDeviation="0.8333333333333334" flood-color="#000000" flood-opacity="100"/></filter>
	</defs>
	<style>
		.s0 { filter: url(#f1);fill: #ffffff } 
		.s1 { fill: #000000 } 
	</style>
	<path id="Shape 1" fill-rule="evenodd" class="s0" d="m150 59h588c3.9 0 7 3.1 7 7v164c0 3.9-3.1 7-7 7h-588c-3.9 0-7-3.1-7-7v-164c0-3.9 3.1-7 7-7z"/>
	<path id="Writen in Django" class="s1" aria-label="Writen in Django"  d="m380.7 171.2l2 8.8 0.3 1.7 0.4-1.6 2.5-8.9h1.4l2.5 8.9 0.3 1.6 0.3-1.7 2-8.8h1.7l-3.1 12.8h-1.6l-2.6-9.3-0.2-1-0.2 1-2.7 9.3h-1.6l-3.1-12.8zm19.4 3.2v1.5q-0.3 0-0.8 0-1.6 0-2.1 1.4v6.7h-1.7v-9.5h1.6v1.1q0.8-1.3 2.3-1.3 0.5 0 0.7 0.1zm3.3 0.1v9.5h-1.6v-9.5zm-1.8-2.5q0-0.4 0.2-0.7 0.3-0.3 0.8-0.3 0.4 0 0.7 0.3 0.2 0.3 0.2 0.7 0 0.4-0.2 0.6-0.3 0.3-0.7 0.3-0.5 0-0.8-0.3-0.2-0.2-0.2-0.6zm4.9 0.2h1.7v2.3h1.7v1.2h-1.7v5.9q0 0.6 0.2 0.9 0.2 0.3 0.8 0.3 0.3 0 0.8-0.1v1.3q-0.7 0.2-1.3 0.2-1 0-1.6-0.7-0.6-0.6-0.6-1.9v-5.9h-1.7v-1.2h1.7zm9.3 12q-1.9 0-3.2-1.3-1.2-1.3-1.2-3.4v-0.3q0-1.4 0.6-2.5 0.5-1.1 1.5-1.7 1-0.7 2.1-0.7 1.8 0 2.9 1.2 1 1.3 1 3.5v0.7h-6.4q0 1.4 0.8 2.3 0.8 0.9 2 0.9 0.8 0 1.4-0.4 0.6-0.4 1.1-0.9l1 0.7q-1.2 1.9-3.6 1.9zm-0.2-8.5q-1 0-1.7 0.7-0.6 0.7-0.8 2h4.8v-0.1q-0.1-1.3-0.7-2-0.6-0.6-1.6-0.6zm5.8-1.2h1.5l0.1 1.2q1.1-1.4 2.8-1.4 3 0 3.1 3.4v6.3h-1.7v-6.3q0-1-0.4-1.5-0.5-0.5-1.5-0.5-0.8 0-1.4 0.4-0.6 0.4-0.9 1.1v6.8h-1.6zm16.1 0v9.5h-1.6v-9.5zm-1.7-2.5q0-0.4 0.2-0.7 0.2-0.3 0.7-0.3 0.5 0 0.7 0.3 0.3 0.3 0.3 0.7 0 0.4-0.3 0.6-0.2 0.3-0.7 0.3-0.5 0-0.7-0.3-0.2-0.2-0.2-0.6zm4.3 2.5h1.5l0.1 1.2q1.1-1.4 2.8-1.4 3.1 0 3.1 3.4v6.3h-1.6v-6.3q0-1-0.5-1.5-0.5-0.5-1.4-0.5-0.8 0-1.4 0.4-0.6 0.5-1 1.1v6.8h-1.6zm18.2 9.5h-3.5v-12.8h3.6q1.6 0 2.9 0.8 1.3 0.7 2 2.1 0.7 1.3 0.7 3.1v0.8q0 1.8-0.7 3.2-0.7 1.3-2 2.1-1.3 0.7-3 0.7zm0.1-11.4h-2v10h1.8q2 0 3-1.2 1.1-1.2 1.1-3.4v-0.8q0-2.2-1-3.4-1-1.2-2.9-1.2zm8 1.9h1.6v10.6q0 2.8-2.5 2.8-0.5 0-1-0.2v-1.3q0.3 0.1 0.7 0.1 0.6 0 0.9-0.3 0.3-0.3 0.3-1zm-0.2-2.6q0-0.4 0.2-0.6 0.3-0.3 0.7-0.3 0.5 0 0.8 0.3 0.2 0.2 0.2 0.6 0 0.4-0.2 0.7-0.3 0.3-0.8 0.3-0.4 0-0.7-0.3-0.2-0.3-0.2-0.7zm12 12.1h-1.7q-0.2-0.3-0.3-1-1.1 1.1-2.7 1.1-1.4 0-2.3-0.7-0.9-0.8-0.9-2.1 0-1.5 1.2-2.3 1.1-0.8 3.1-0.8h1.6v-0.7q0-0.9-0.5-1.4-0.5-0.5-1.5-0.5-0.9 0-1.5 0.4-0.5 0.5-0.5 1.1h-1.7q0-0.7 0.5-1.4 0.5-0.6 1.4-1 0.9-0.4 1.9-0.4 1.6 0 2.6 0.8 0.9 0.8 0.9 2.3v4.3q0 1.4 0.4 2.1zm-4.4-1.2q0.7 0 1.4-0.4 0.7-0.4 1-1v-2h-1.3q-2.9 0-2.9 1.8 0 0.7 0.5 1.2 0.5 0.4 1.3 0.4zm6.6-8.3h1.5l0.1 1.2q1.1-1.4 2.8-1.4 3 0 3.1 3.4v6.3h-1.7v-6.3q0-1-0.4-1.5-0.5-0.5-1.5-0.5-0.8 0-1.4 0.4-0.5 0.5-0.9 1.1v6.8h-1.6zm9.5 4.7q0-2.2 1.1-3.5 1-1.4 2.7-1.4 1.7 0 2.7 1.3l0.1-1.1h1.5v9.3q0 1.9-1.1 2.9-1.1 1.1-3 1.1-1 0-2-0.5-1-0.4-1.5-1.2l0.9-0.9q1 1.3 2.5 1.3 1.2 0 1.9-0.7 0.6-0.7 0.6-1.9v-0.8q-0.9 1.1-2.6 1.1-1.7 0-2.7-1.3-1.1-1.4-1.1-3.7zm1.7 0.2q0 1.6 0.6 2.5 0.7 0.9 1.9 0.9 1.5 0 2.2-1.4v-4.3q-0.7-1.4-2.2-1.4-1.2 0-1.9 1-0.6 0.9-0.6 2.7zm8.4-0.1v-0.1q0-1.4 0.5-2.5 0.6-1.1 1.6-1.7 0.9-0.7 2.2-0.7 1.9 0 3.1 1.4 1.2 1.3 1.2 3.6v0.1q0 1.4-0.5 2.5-0.5 1.1-1.5 1.7-1 0.6-2.3 0.6-1.9 0-3.1-1.3-1.2-1.4-1.2-3.6zm1.6 0.1q0 1.6 0.8 2.5 0.7 1 1.9 1 1.3 0 2-1 0.7-1 0.7-2.7 0-1.6-0.7-2.5-0.8-1-2-1-1.2 0-1.9 0.9-0.8 1-0.8 2.8z"/>
	<path id="Project Management App" class="s1" aria-label="Project Management App"  d="m181.4 121.6h-5.4v12h5.4q3 0 4.7-1.6 1.6-1.5 1.6-4.4 0-2.9-1.6-4.4-1.7-1.6-4.7-1.6zm-9.8 28.4v-32h9.8q5.4 0 8.1 2.5 2.8 2.4 2.8 7.1 0 4.7-2.8 7.1-2.7 2.5-8.1 2.5h-5.4v12.8zm39.3-24.3l0.1 4q-0.7-0.4-1.5-0.6-0.8-0.1-1.7-0.1-3.3 0-5.1 2.1-1.8 2.2-1.8 6.3v12.6h-4v-24h4v3.7q1.2-2.1 3.2-3.2 2-1.1 4.9-1.1 0.4 0 0.9 0.1 0.4 0.1 1 0.2zm12.5 3.1q-3.1 0-5 2.5-1.8 2.4-1.8 6.7 0 4.3 1.8 6.8 1.8 2.5 5 2.5 3.2 0 5-2.5 1.9-2.5 1.9-6.8 0-4.2-1.9-6.7-1.8-2.5-5-2.5zm0-3.4q5.2 0 8.1 3.4 2.9 3.3 2.9 9.2 0 5.9-2.9 9.3-2.9 3.3-8.1 3.3-5.1 0-8.1-3.3-2.9-3.4-2.9-9.3 0-5.9 2.9-9.2 3-3.4 8.1-3.4zm17.6 25v-24.4h3.9v24.4q0 4.6-1.8 6.7-1.7 2-5.6 2h-1.5v-3.3h1.1q2.2 0 3-1 0.9-1.1 0.9-4.4zm0-28.7v-5h3.9v5zm32.7 15.3v2h-18.1q0.2 4 2.4 6.2 2.2 2.1 6.1 2.1 2.3 0 4.4-0.6 2.2-0.5 4.3-1.6v3.7q-2.2 0.9-4.4 1.3-2.2 0.5-4.5 0.5-5.7 0-9.1-3.3-3.3-3.4-3.3-9.1 0-5.8 3.1-9.3 3.2-3.5 8.6-3.5 4.9 0 7.7 3.2 2.8 3.1 2.8 8.4zm-18-1.1h14q0-3.3-1.8-5.2-1.7-1.9-4.6-1.9-3.3 0-5.3 1.8-2 1.9-2.3 5.3zm41.7-9v3.7q-1.7-0.9-3.4-1.3-1.6-0.5-3.3-0.5-3.9 0-6 2.4-2.1 2.4-2.1 6.8 0 4.4 2.1 6.9 2.1 2.4 6 2.4 1.7 0 3.3-0.5 1.7-0.4 3.4-1.4v3.7q-1.6 0.8-3.4 1.1-1.8 0.4-3.8 0.4-5.4 0-8.6-3.4-3.2-3.4-3.2-9.2 0-5.8 3.3-9.2 3.2-3.4 8.8-3.4 1.8 0 3.5 0.4 1.8 0.4 3.4 1.1zm6.8-7.7h4v6.8h8.1v3.1h-8.1v13q0 2.9 0.7 3.8 0.9 0.8 3.3 0.8h4.1v3.3h-4.1q-4.5 0-6.3-1.7-1.7-1.7-1.7-6.2v-13h-2.9v-3.1h2.9zm31.4 30.8v-32h6.4l8.2 21.8 8.2-21.8h6.4v32h-4.2v-28.1l-8.3 22h-4.3l-8.2-22v28.1zm52.4-12h-3.9q-4.8 0-6.6 1-1.8 1.1-1.8 3.8 0 2.1 1.3 3.3 1.4 1.2 3.8 1.2 3.3 0 5.2-2.3 2-2.3 2-6.2zm4-1.6v13.7h-4v-3.7q-1.3 2.2-3.3 3.3-2 1-5 1-3.6 0-5.8-2-2.2-2.1-2.2-5.6 0-4 2.7-6.1 2.7-2.1 8.1-2.1h5.5v-0.3q0-2.8-1.8-4.2-1.7-1.5-5-1.5-2 0-4 0.5-1.9 0.5-3.7 1.4v-3.6q2.1-0.8 4.2-1.2 2-0.5 3.9-0.5 5.2 0 7.8 2.7 2.6 2.7 2.6 8.2zm28-0.8v14.5h-3.9v-14.4q0-3.4-1.4-5.1-1.3-1.6-3.9-1.6-3.2 0-5.1 2-1.8 2-1.8 5.5v13.6h-4v-24h4v3.7q1.4-2.1 3.3-3.2 1.9-1.1 4.4-1.1 4.2 0 6.3 2.6 2.1 2.5 2.1 7.5zm22.7 2.4h-3.9q-4.8 0-6.7 1.1-1.8 1.1-1.8 3.7 0 2.1 1.4 3.4 1.4 1.2 3.7 1.2 3.3 0 5.3-2.3 2-2.3 2-6.2zm3.9-1.6v13.7h-3.9v-3.7q-1.4 2.2-3.4 3.3-2 1-4.9 1-3.7 0-5.9-2.1-2.1-2-2.1-5.5 0-4.1 2.7-6.1 2.7-2.1 8.1-2.1h5.5v-0.4q0-2.7-1.8-4.2-1.8-1.5-5-1.5-2.1 0-4 0.5-2 0.5-3.8 1.5v-3.6q2.2-0.9 4.2-1.3 2.1-0.4 4-0.4 5.2 0 7.8 2.7 2.5 2.7 2.5 8.2zm23.9 1.4q0-4.3-1.8-6.6-1.7-2.4-4.9-2.4-3.2 0-5 2.4-1.7 2.3-1.7 6.6 0 4.3 1.7 6.6 1.8 2.4 5 2.4 3.2 0 4.9-2.4 1.8-2.3 1.8-6.6zm4-11.7v21q0 6.1-2.8 9.1-2.7 3-8.3 3-2.1 0-3.9-0.3-1.9-0.3-3.6-1v-3.8q1.7 0.9 3.4 1.4 1.7 0.4 3.5 0.4 3.9 0 5.8-2 1.9-2 1.9-6.1v-2q-1.2 2.2-3.1 3.2-1.9 1.1-4.6 1.1-4.4 0-7.1-3.4-2.7-3.4-2.7-8.9 0-5.6 2.7-8.9 2.7-3.4 7.1-3.4 2.7 0 4.6 1.1 1.9 1 3.1 3.1v-3.6zm28.6 11v1.9h-18.1q0.3 4.1 2.5 6.2 2.2 2.1 6.1 2.1 2.3 0 4.4-0.5 2.1-0.6 4.2-1.7v3.7q-2.1 0.9-4.3 1.4-2.3 0.5-4.5 0.5-5.8 0-9.1-3.4-3.4-3.3-3.4-9 0-5.9 3.2-9.3 3.2-3.5 8.6-3.5 4.8 0 7.6 3.1 2.8 3.1 2.8 8.5zm-17.9-1.1l14-0.1q0-3.2-1.8-5.1-1.8-2-4.7-2-3.3 0-5.3 1.9-1.9 1.9-2.2 5.3zm43.1-5.3q1.4-2.7 3.5-3.9 2.1-1.3 4.8-1.3 3.8 0 5.8 2.6 2.1 2.7 2.1 7.5v14.5h-4v-14.4q0-3.4-1.2-5.1-1.2-1.7-3.8-1.7-3 0-4.8 2.1-1.8 2-1.8 5.5v13.6h-3.9v-14.4q0-3.4-1.2-5.1-1.3-1.7-3.8-1.7-3 0-4.8 2.1-1.8 2-1.8 5.5v13.6h-3.9v-24h3.9v3.7q1.4-2.2 3.2-3.2 1.9-1.1 4.5-1.1 2.6 0 4.4 1.3 1.9 1.4 2.8 3.9zm44.5 6.4v1.9h-18.1q0.3 4.1 2.4 6.2 2.3 2.1 6.2 2.1 2.2 0 4.4-0.5 2.1-0.6 4.2-1.7v3.7q-2.1 0.9-4.3 1.4-2.3 0.5-4.6 0.5-5.7 0-9.1-3.4-3.3-3.3-3.3-9 0-5.9 3.2-9.3 3.2-3.5 8.5-3.5 4.9 0 7.7 3.1 2.8 3.1 2.8 8.5zm-18-1.1l14.1-0.1q-0.1-3.2-1.8-5.1-1.8-2-4.7-2-3.3 0-5.3 1.9-2 1.9-2.3 5.3zm44.4-0.4v14.5h-3.9v-14.4q0-3.4-1.4-5.1-1.3-1.7-3.9-1.7-3.2 0-5.1 2.1-1.8 2-1.8 5.5v13.6h-4v-24h4v3.7q1.4-2.2 3.3-3.2 1.9-1.1 4.4-1.1 4.2 0 6.3 2.6 2.1 2.5 2.1 7.5zm7.8-16.3h4v6.8h8.1v3h-8.1v13.1q0 2.9 0.8 3.7 0.8 0.9 3.2 0.9h4.1v3.3h-4.1q-4.5 0-6.3-1.7-1.7-1.7-1.7-6.2v-13.1h-2.9v-3h2.9zm47.9 19l-5.8-15.9-5.9 15.9zm-20.5 11.8l12.2-32h4.9l12.1 32h-4.5l-2.9-8.2h-14.4l-2.9 8.2zm37.6-3.6v12.7h-4v-33.1h4v3.6q1.3-2.1 3.1-3.1 1.9-1.1 4.6-1.1 4.3 0 7.1 3.5 2.7 3.5 2.7 9.1 0 5.7-2.7 9.1-2.8 3.5-7.1 3.5-2.7 0-4.6-1-1.8-1.1-3.1-3.2zm13.4-8.4q0-4.3-1.8-6.8-1.8-2.5-4.9-2.5-3.1 0-4.9 2.5-1.8 2.5-1.8 6.8 0 4.3 1.8 6.8 1.8 2.5 4.9 2.5 3.1 0 4.9-2.5 1.8-2.5 1.8-6.8zm14.4 8.4v12.7h-3.9v-33.1h3.9v3.6q1.3-2.1 3.2-3.1 1.9-1.1 4.5-1.1 4.4 0 7.1 3.5 2.7 3.5 2.7 9.1 0 5.7-2.7 9.1-2.7 3.5-7.1 3.5-2.6 0-4.5-1-1.9-1.1-3.2-3.2zm13.4-8.4q0-4.3-1.8-6.8-1.7-2.5-4.9-2.5-3.1 0-4.9 2.5-1.8 2.5-1.8 6.8 0 4.3 1.8 6.8 1.8 2.5 4.9 2.5 3.2 0 4.9-2.5 1.8-2.5 1.8-6.8z"/>
</svg>